<?xml version="1.0" encoding="iso-8859-1"?>
<!-- Uploaded to: SVG Repo, www.svgrepo.com, Generator: SVG Repo Mixer Tools -->
<svg height="800px" width="800px" version="1.1" id="Layer_1" xmlns="http://www.w3.org/2000/svg" xmlns:xlink="http://www.w3.org/1999/xlink" 
	 viewBox="0 0 512 512" xml:space="preserve">
<path style="fill:#FFA929;" d="M477.166,202.92h-26.54c-24.429,0-44.233-19.804-44.233-44.233v-17.693
	c0-73.288-59.412-132.7-132.7-132.7h-132.7c-73.288,0-132.7,59.412-132.7,132.7v61.927v176.933
	c0,68.402,55.451,123.853,123.853,123.853h247.706c68.402,0,123.853-55.451,123.853-123.853V229.46
	C503.706,214.802,491.824,202.92,477.166,202.92z M158.687,140.994h106.16c14.658,0,26.54,11.882,26.54,26.54
	c0,14.658-11.882,26.54-26.54,26.54h-106.16c-14.658,0-26.54-11.882-26.54-26.54C132.147,152.876,144.029,140.994,158.687,140.994z
	 M344.467,371.006h-185.78c-14.658,0-26.54-11.882-26.54-26.54s11.882-26.54,26.54-26.54h185.78c14.658,0,26.54,11.882,26.54,26.54
	S359.124,371.006,344.467,371.006z"/>
<path style="fill:#F78C20;" d="M43.68,379.853V202.92v-61.927c0-73.288,59.412-132.7,132.7-132.7h-35.387
	c-73.288,0-132.7,59.412-132.7,132.7v61.927v176.933c0,68.402,55.451,123.853,123.853,123.853h35.387
	C99.131,503.706,43.68,448.255,43.68,379.853z"/>
<path d="M477.166,194.626h-26.54c-19.818,0-35.94-16.122-35.94-35.94v-17.693C414.687,63.249,351.438,0,273.693,0h-132.7
	C63.249,0,0,63.249,0,140.994v185.78c0,4.581,3.713,8.294,8.294,8.294s8.294-3.712,8.294-8.294v-185.78
	c0-68.597,55.808-124.406,124.406-124.406h132.7c68.597,0,124.406,55.809,124.406,124.406v17.693
	c0,28.963,23.564,52.527,52.527,52.527h26.54c10.062,0,18.246,8.184,18.246,18.246v150.393c0,63.719-51.84,115.559-115.559,115.559
	H132.147c-63.72,0-115.559-51.84-115.559-115.559V362.16c0-4.581-3.713-8.294-8.294-8.294S0,357.578,0,362.16v17.693
	C0,452.72,59.28,512,132.147,512h247.706C452.72,512,512,452.72,512,379.853V229.46C512,210.253,496.373,194.626,477.166,194.626z"
	/>
<path d="M158.687,202.367h106.16c19.207,0,34.834-15.627,34.834-34.834S284.054,132.7,264.847,132.7h-106.16
	c-19.207,0-34.834,15.626-34.834,34.834S139.48,202.367,158.687,202.367z M158.687,149.287h106.16
	c10.062,0,18.246,8.184,18.246,18.246c0,10.062-8.184,18.246-18.246,18.246h-106.16c-10.061,0-18.246-8.184-18.246-18.246
	C140.441,157.472,148.626,149.287,158.687,149.287z"/>
<path d="M158.687,379.3h185.78c19.207,0,34.834-15.627,34.834-34.834c0-19.207-15.627-34.834-34.834-34.834h-44.233
	c-4.581,0-8.294,3.712-8.294,8.294c0,4.581,3.712,8.294,8.294,8.294h44.233c10.062,0,18.246,8.184,18.246,18.246
	c0,10.062-8.184,18.246-18.246,18.246h-185.78c-10.061,0-18.246-8.184-18.246-18.246c0-10.062,8.185-18.246,18.246-18.246h106.16
	c4.581,0,8.294-3.712,8.294-8.294c0-4.581-3.712-8.294-8.294-8.294h-106.16c-19.207,0-34.834,15.627-34.834,34.834
	C123.853,363.674,139.48,379.3,158.687,379.3z"/>
</svg>