<?xml version="1.0" encoding="utf-8"?><svg xmlns="http://www.w3.org/2000/svg"><symbol viewBox="0 0 24 24" id="happy-face"><path d="M7.3010863,14.0011479 C8.0734404,15.7578367 9.98813711,17 11.9995889,17 C14.0024928,17 15.913479,15.7546194 16.6925307,14.0055328"/><line stroke-linecap="round" x1="9" y1="9" x2="9" y2="9"/><line stroke-linecap="round" x1="15" y1="9" x2="15" y2="9"/><circle cx="12" cy="12" r="10"/></symbol><symbol viewBox="0 0 24 24" id="file"><path stroke-linecap="round" d="M13 3v6h6"/><path d="M13 3l6 6v12H5V3z"/></symbol><symbol viewBox="0 0 24 24" id="exit"><path d="M18 15l3-3-3-3"/><path d="M11.5 12H20"/><path stroke-linecap="round" d="M21 12h-1"/><path d="M15 4v16H4V4z"/></symbol><symbol viewBox="0 0 24 24" id="tag-alt"><circle cx="10" cy="12" r="1"/><path d="M8 18l-6-6 6-6h12a2 2 0 0 1 2 2v8a2 2 0 0 1-2 2H8z"/></symbol><symbol viewBox="0 0 24 24" id="power"><path d="M12 2L12 11M18.363961 5.63603897C21.8786797 9.15075759 21.8786797 14.8492424 18.363961 18.363961 14.8492424 21.8786797 9.15075759 21.8786797 5.63603897 18.363961 2.12132034 14.8492424 2.12132034 9.15075759 5.63603897 5.63603897"/></symbol><symbol viewBox="0 0 24 24" id="user"><path stroke-linecap="round" d="M5.5,19.5 C7.83333333,18.5 9.33333333,17.6666667 10,17 C11,16 8,16 8,11 C8,7.66666667 9.33333333,6 12,6 C14.6666667,6 16,7.66666667 16,11 C16,16 13,16 14,17 C14.6666667,17.6666667 16.1666667,18.5 18.5,19.5"/><circle cx="12" cy="12" r="10"/></symbol><symbol viewBox="0 0 24 24" id="new"><path d="M19 14V22H2.99997V4H13"/><path d="M17.4608 4.03921C18.2418 3.25817 19.5082 3.25816 20.2892 4.03921L20.9608 4.71079C21.7418 5.49184 21.7418 6.75817 20.9608 7.53921L11.5858 16.9142C11.2107 17.2893 10.702 17.5 10.1716 17.5L7.5 17.5L7.5 14.8284C7.5 14.298 7.71071 13.7893 8.08579 13.4142L17.4608 4.03921Z"/><path d="M16.25 5.25L19.75 8.75"/></symbol><symbol viewBox="0 0 24 24" id="list"><path d="M10 7L18 7M10 12L18 12M10 17L18 17"/><line x1="7" y1="7" x2="7" y2="7"/><line x1="7" y1="12" x2="7" y2="12"/><line x1="7" y1="17" x2="7" y2="17"/></symbol></svg>